<svg width="500" height="121" viewBox="0 0 500 121" fill="none" xmlns="http://www.w3.org/2000/svg">
<path d="M58.2606 31.5562L54.2458 51.6321H103.065L97.0426 81.4132H48.3988L40.8711 118.891H1.42383L24.9405 1.16785H121.563L113.93 31.5329L58.2606 31.5562Z" fill="#D93D3D" stroke="#101010" stroke-width="2" stroke-miterlimit="10"/>
<path d="M139.594 97.822H94.9769L83.3061 118.213H41.6764L116.206 1.16785H155L182.741 118.213H143.434L139.594 97.822ZM134.086 69.3957L128.402 39.4628L111.188 69.3957H134.086Z" fill="#D93D3D" stroke="#101010" stroke-width="2" stroke-miterlimit="10"/>
<path d="M174.303 1.16785H215.618L191.109 118.213H149.795L174.303 1.16785Z" fill="#D93D3D" stroke="#101010" stroke-width="2" stroke-miterlimit="10"/>
<path d="M319.138 25.4132L252.381 87.6148L308.202 86.2834L290.509 118.213H192.16L197.155 93.9681L263.9 31.7198H210.436L216.797 1.12122H324.168L319.138 25.4132Z" fill="#D93D3D" stroke="#101010" stroke-width="2" stroke-miterlimit="10"/>
<path d="M350.182 97.822H303.441L291.186 118.213H247.596L325.673 1.16785H366.241L393.434 116.788L354.162 118.213L350.182 97.822ZM344.405 69.3957L338.453 39.4628L320.422 69.3957H344.405Z" fill="#D93D3D" stroke="#101010" stroke-width="2" stroke-miterlimit="10"/>
<path d="M498.553 1.16785L474.266 118.213H440.596L405.712 63.7081L394.426 118.213H354.57L378.869 1.16785H412.539L447.423 55.6847L458.697 1.16785H498.553Z" fill="#D93D3D" stroke="#101010" stroke-width="2" stroke-miterlimit="10"/>
</svg>
