<svg width="50" height="50" viewBox="0 0 50 50" fill="none" xmlns="http://www.w3.org/2000/svg">
<path d="M23.4375 3.125C12.2377 3.125 3.125 12.2377 3.125 23.4375C3.125 34.6373 12.2377 43.75 23.4375 43.75C34.6373 43.75 43.75 34.6373 43.75 23.4375C43.75 12.2377 34.6373 3.125 23.4375 3.125ZM23.4375 6.25C32.9484 6.25 40.625 13.9266 40.625 23.4375C40.625 32.0823 34.2737 39.1907 25.9766 40.4175V28.4058H30.8289L31.5918 23.4802H25.9766V20.7825C25.9766 18.7356 26.6427 16.9189 28.5583 16.9189H31.6345V12.616C31.0939 12.5441 29.9518 12.384 27.7893 12.384C23.2768 12.384 20.6299 14.7684 20.6299 20.1965V23.4741H15.9912V28.4058H20.636V40.3748C12.4681 39.0379 6.25 31.9908 6.25 23.4375C6.25 13.9266 13.9266 6.25 23.4375 6.25Z" fill="#D93D3D"/>
</svg>
