<svg width="45" height="45" viewBox="0 0 45 45" fill="none" xmlns="http://www.w3.org/2000/svg">
<path d="M21.0938 2.8125C10.9973 2.8125 2.8125 10.9863 2.8125 21.0608C2.8125 29.1248 8.05298 35.9692 15.3149 38.3862C16.2268 38.551 16.875 37.6172 16.875 36.9141C16.875 36.4856 16.886 35.9692 16.875 34.4531C11.7883 35.5518 10.1953 31.9922 10.1953 31.9922C9.36035 29.8828 8.34961 29.2786 8.34961 29.2786C6.69067 28.147 8.47046 28.1799 8.47046 28.1799C10.3052 28.3008 11.25 29.8828 11.25 29.8828C12.6562 32.3438 15.8313 32.1021 16.875 31.6406C16.875 30.52 16.9959 29.707 17.3035 29.1907C11.5576 28.1799 8.42651 24.8621 8.4375 20.2698C8.44849 17.5562 9.38233 15.4468 10.8984 13.8867C10.2393 13.0518 9.78882 10.1953 11.1401 8.4375C14.5349 8.4375 16.5564 10.8875 16.5564 10.8875C16.5564 10.8875 18.1494 10.1953 21.0828 10.1953C24.0271 10.1953 25.6091 10.8545 25.6091 10.8545C25.6091 10.8545 27.6416 8.4375 31.0364 8.4375C32.3877 10.1953 31.9373 13.0518 31.4099 13.8318C32.8601 15.3589 33.75 17.4683 33.75 20.2698C33.75 24.8621 30.6299 28.1799 24.895 29.1797C25.2576 29.729 25.3125 30.498 25.3125 31.6406C25.3125 34.0796 25.3125 36.3098 25.3125 36.9141C25.3125 37.6172 25.9497 38.562 26.8835 38.3862C34.1455 35.9583 39.375 29.1248 39.375 21.0608C39.375 10.9863 31.1902 2.8125 21.0938 2.8125Z" fill="#D93D3D"/>
</svg>
