<svg width="40" height="40" viewBox="0 0 40 40" fill="none" xmlns="http://www.w3.org/2000/svg">
<path d="M37.8884 9.59436L35.3349 35.2357H4.66493L2.60767 10.0906L19.9999 19.8283L37.8884 9.59436Z" fill="white" fill-opacity="0.06"/>
<path d="M37.0223 4.76428L20 20.7546L2.97766 4.76428H20H37.0223Z" fill="white" fill-opacity="0.06"/>
<path d="M4.665 12.1479V35.2357H1.88586C0.844688 35.2357 0 34.3911 0 33.3499V8.74744L3.04688 8.83048L4.665 12.1479Z" fill="#D93D3D"/>
<path d="M39.9999 8.74742V33.3499C39.9999 34.3911 39.1553 35.2358 38.1131 35.2358H35.335V12.1479L36.8734 8.51312L39.9999 8.74742Z" fill="#D93D3D"/>
<path d="M40 6.65014V8.74741L35.335 12.1479L20 23.3251L4.665 12.1479L0 8.74741V6.65014C0 5.60897 0.844688 4.76428 1.88586 4.76428H2.97766L20 17.1712L37.0223 4.76428H38.1131C39.1553 4.76428 40 5.60889 40 6.65014Z" fill="#D93D3D"/>
<path d="M4.665 12.1479L0 11.4246V8.74744L4.665 12.1479Z" fill="#D93D3D"/>
</svg>
