<svg width="1080" height="853" viewBox="0 0 1080 853" fill="none" xmlns="http://www.w3.org/2000/svg">
<path d="M74 295.8C55.8 295.8 38.7 293.9 22.7 290.1C6.7 286.1 -6.5 280.9 -16.9 274.5L10.4 222.3C33 235.3 56.6 241.8 81.2 241.8C90.2 241.8 97.1 240.7 101.9 238.5C106.7 236.3 109.1 233.3 109.1 229.5C109.1 225.9 106.6 223 101.6 220.8C96.8 218.6 89.1 216.2 78.5 213.6C64.5 210 52.9 206.4 43.7 202.8C34.5 199 26.4 193.3 19.4 185.7C12.6 177.9 9.2 167.7 9.2 155.1C9.2 139.3 13.4 125.5 21.8 113.7C30.4 101.7 42.7 92.5 58.7 86.1C74.7 79.5 93.6 76.2 115.4 76.2C131 76.2 145.5 77.8 158.9 81C172.5 84 184.2 88.4 194 94.2L168.5 145.8C160.3 140.6 151.2 136.7 141.2 134.1C131.4 131.5 121.3 130.2 110.9 130.2C101.1 130.2 93.5 131.6 88.1 134.4C82.7 137.2 80 140.5 80 144.3C80 148.1 82.4 151.1 87.2 153.3C92.2 155.5 100.3 157.9 111.5 160.5C125.1 163.7 136.5 167.1 145.7 170.7C155.1 174.3 163.2 179.9 170 187.5C176.8 195.1 180.2 205.1 180.2 217.5C180.2 233.1 175.9 246.8 167.3 258.6C158.7 270.4 146.4 279.6 130.4 286.2C114.4 292.6 95.6 295.8 74 295.8ZM340.168 176.7L408.568 291H329.668L287.068 222.6L267.268 240.9L257.368 291H187.768L229.768 81H299.368L284.368 155.4L364.168 81H445.468L340.168 176.7ZM459.163 81H529.963L487.963 291H417.163L459.163 81ZM564.045 81H634.845L603.945 236.1H698.745L687.645 291H522.045L564.045 81ZM749.202 81H820.002L789.102 236.1H883.902L872.802 291H707.202L749.202 81ZM975.758 295.8C957.558 295.8 940.458 293.9 924.458 290.1C908.458 286.1 895.258 280.9 884.858 274.5L912.158 222.3C934.758 235.3 958.358 241.8 982.958 241.8C991.958 241.8 998.858 240.7 1003.66 238.5C1008.46 236.3 1010.86 233.3 1010.86 229.5C1010.86 225.9 1008.36 223 1003.36 220.8C998.558 218.6 990.858 216.2 980.258 213.6C966.258 210 954.658 206.4 945.458 202.8C936.258 199 928.158 193.3 921.158 185.7C914.358 177.9 910.958 167.7 910.958 155.1C910.958 139.3 915.158 125.5 923.558 113.7C932.158 101.7 944.458 92.5 960.458 86.1C976.458 79.5 995.358 76.2 1017.16 76.2C1032.76 76.2 1047.26 77.8 1060.66 81C1074.26 84 1085.96 88.4 1095.76 94.2L1070.26 145.8C1062.06 140.6 1052.96 136.7 1042.96 134.1C1033.16 131.5 1023.06 130.2 1012.66 130.2C1002.86 130.2 995.258 131.6 989.858 134.4C984.458 137.2 981.758 140.5 981.758 144.3C981.758 148.1 984.158 151.1 988.958 153.3C993.958 155.5 1002.06 157.9 1013.26 160.5C1026.86 163.7 1038.26 167.1 1047.46 170.7C1056.86 174.3 1064.96 179.9 1071.76 187.5C1078.56 195.1 1081.96 205.1 1081.96 217.5C1081.96 233.1 1077.66 246.8 1069.06 258.6C1060.46 270.4 1048.16 279.6 1032.16 286.2C1016.16 292.6 997.358 295.8 975.758 295.8Z" fill="white" fill-opacity="0.06"/>
<path d="M114.6 741.4H34.5L13.5 778H-61.2L72.6 568H142.2L192 778H121.5L114.6 741.4ZM104.7 690.4L94.5 636.7L63.6 690.4H104.7ZM394.399 670C403.399 674 410.299 679.5 415.099 686.5C420.099 693.3 422.599 701.5 422.599 711.1C422.599 733.3 413.399 750 394.999 761.2C376.799 772.4 353.299 778 324.499 778H203.299L245.299 568H356.599C381.199 568 399.899 572.4 412.699 581.2C425.499 589.8 431.899 602.1 431.899 618.1C431.899 629.9 428.599 640.3 421.999 649.3C415.399 658.1 406.199 665 394.399 670ZM304.999 617.5L298.699 648.7H334.699C350.299 648.7 358.099 642.6 358.099 630.4C358.099 626.2 356.499 623 353.299 620.8C350.099 618.6 345.499 617.5 339.499 617.5H304.999ZM328.399 728.5C335.599 728.5 341.399 726.9 345.799 723.7C350.199 720.3 352.399 715.5 352.399 709.3C352.399 704.9 350.699 701.5 347.299 699.1C344.099 696.7 339.999 695.5 334.999 695.5H289.399L282.799 728.5H328.399ZM553.53 782.8C532.13 782.8 513.33 778.9 497.13 771.1C481.13 763.1 468.73 752 459.93 737.8C451.33 723.6 447.03 707.3 447.03 688.9C447.03 664.5 452.63 642.8 463.83 623.8C475.23 604.6 490.93 589.7 510.93 579.1C531.13 568.5 553.93 563.2 579.33 563.2C600.73 563.2 619.43 567.2 635.43 575.2C651.63 583 664.03 594 672.63 608.2C681.43 622.4 685.83 638.7 685.83 657.1C685.83 681.5 680.13 703.3 668.73 722.5C657.53 741.5 641.83 756.3 621.63 766.9C601.63 777.5 578.93 782.8 553.53 782.8ZM559.53 725.5C570.73 725.5 580.43 722.6 588.63 716.8C597.03 711 603.43 703.2 607.83 693.4C612.23 683.6 614.43 672.9 614.43 661.3C614.43 648.9 610.73 639 603.33 631.6C596.13 624.2 586.13 620.5 573.33 620.5C562.13 620.5 552.33 623.4 543.93 629.2C535.73 635 529.43 642.8 525.03 652.6C520.63 662.4 518.43 673.1 518.43 684.7C518.43 697.1 522.03 707 529.23 714.4C536.63 721.8 546.73 725.5 559.53 725.5ZM795.527 782.8C776.727 782.8 760.427 779.7 746.627 773.5C733.027 767.1 722.527 758.1 715.127 746.5C707.927 734.9 704.327 721.3 704.327 705.7C704.327 699.3 705.127 691.9 706.727 683.5L729.827 568H800.627L777.827 682.3C776.627 687.9 776.027 693 776.027 697.6C776.027 707 778.427 714 783.227 718.6C788.027 723.2 795.027 725.5 804.227 725.5C814.627 725.5 822.727 722.2 828.527 715.6C834.327 709 838.827 697.9 842.027 682.3L864.827 568H934.427L910.727 686.5C904.327 718.3 891.527 742.3 872.327 758.5C853.127 774.7 827.527 782.8 795.527 782.8ZM998.452 622.9H936.952L948.052 568H1141.85L1130.75 622.9H1069.25L1038.35 778H967.552L998.452 622.9Z" fill="white" fill-opacity="0.06"/>
</svg>
