<svg width="1920" height="617" viewBox="0 0 1920 617" fill="none" xmlns="http://www.w3.org/2000/svg">
<path d="M494 295.8C475.8 295.8 458.7 293.9 442.7 290.1C426.7 286.1 413.5 280.9 403.1 274.5L430.4 222.3C453 235.3 476.6 241.8 501.2 241.8C510.2 241.8 517.1 240.7 521.9 238.5C526.7 236.3 529.1 233.3 529.1 229.5C529.1 225.9 526.6 223 521.6 220.8C516.8 218.6 509.1 216.2 498.5 213.6C484.5 210 472.9 206.4 463.7 202.8C454.5 199 446.4 193.3 439.4 185.7C432.6 177.9 429.2 167.7 429.2 155.1C429.2 139.3 433.4 125.5 441.8 113.7C450.4 101.7 462.7 92.5 478.7 86.1C494.7 79.5 513.6 76.2 535.4 76.2C551 76.2 565.5 77.8 578.9 81C592.5 84 604.2 88.4 614 94.2L588.5 145.8C580.3 140.6 571.2 136.7 561.2 134.1C551.4 131.5 541.3 130.2 530.9 130.2C521.1 130.2 513.5 131.6 508.1 134.4C502.7 137.2 500 140.5 500 144.3C500 148.1 502.4 151.1 507.2 153.3C512.2 155.5 520.3 157.9 531.5 160.5C545.1 163.7 556.5 167.1 565.7 170.7C575.1 174.3 583.2 179.9 590 187.5C596.8 195.1 600.2 205.1 600.2 217.5C600.2 233.1 595.9 246.8 587.3 258.6C578.7 270.4 566.4 279.6 550.4 286.2C534.4 292.6 515.6 295.8 494 295.8ZM760.168 176.7L828.568 291H749.668L707.068 222.6L687.268 240.9L677.368 291H607.768L649.768 81H719.368L704.368 155.4L784.168 81H865.468L760.168 176.7ZM879.163 81H949.963L907.963 291H837.163L879.163 81ZM984.045 81H1054.85L1023.95 236.1H1118.75L1107.65 291H942.045L984.045 81ZM1169.2 81H1240L1209.1 236.1H1303.9L1292.8 291H1127.2L1169.2 81ZM1395.76 295.8C1377.56 295.8 1360.46 293.9 1344.46 290.1C1328.46 286.1 1315.26 280.9 1304.86 274.5L1332.16 222.3C1354.76 235.3 1378.36 241.8 1402.96 241.8C1411.96 241.8 1418.86 240.7 1423.66 238.5C1428.46 236.3 1430.86 233.3 1430.86 229.5C1430.86 225.9 1428.36 223 1423.36 220.8C1418.56 218.6 1410.86 216.2 1400.26 213.6C1386.26 210 1374.66 206.4 1365.46 202.8C1356.26 199 1348.16 193.3 1341.16 185.7C1334.36 177.9 1330.96 167.7 1330.96 155.1C1330.96 139.3 1335.16 125.5 1343.56 113.7C1352.16 101.7 1364.46 92.5 1380.46 86.1C1396.46 79.5 1415.36 76.2 1437.16 76.2C1452.76 76.2 1467.26 77.8 1480.66 81C1494.26 84 1505.96 88.4 1515.76 94.2L1490.26 145.8C1482.06 140.6 1472.96 136.7 1462.96 134.1C1453.16 131.5 1443.06 130.2 1432.66 130.2C1422.86 130.2 1415.26 131.6 1409.86 134.4C1404.46 137.2 1401.76 140.5 1401.76 144.3C1401.76 148.1 1404.16 151.1 1408.96 153.3C1413.96 155.5 1422.06 157.9 1433.26 160.5C1446.86 163.7 1458.26 167.1 1467.46 170.7C1476.86 174.3 1484.96 179.9 1491.76 187.5C1498.56 195.1 1501.96 205.1 1501.96 217.5C1501.96 233.1 1497.66 246.8 1489.06 258.6C1480.46 270.4 1468.16 279.6 1452.16 286.2C1436.16 292.6 1417.36 295.8 1395.76 295.8Z" fill="white" fill-opacity="0.06"/>
<path d="M41.9 332C69.9 332 91.6 338.1 107 350.3C122.4 362.5 130.1 379.6 130.1 401.6C130.1 419.2 125.7 434.7 116.9 448.1C108.3 461.5 95.9 471.9 79.7 479.3C63.7 486.7 45.1 490.4 23.9 490.4H-12.4L-22.6 542H-93.4L-51.4 332H41.9ZM27.5 435.8C37.3 435.8 44.9 433.4 50.3 428.6C55.7 423.6 58.4 416.7 58.4 407.9C58.4 393.7 49.6 386.6 32 386.6H8.30001L-1.59999 435.8H27.5ZM247.749 546.8C226.349 546.8 207.549 542.9 191.349 535.1C175.349 527.1 162.949 516 154.149 501.8C145.549 487.6 141.249 471.3 141.249 452.9C141.249 428.5 146.849 406.8 158.049 387.8C169.449 368.6 185.149 353.7 205.149 343.1C225.349 332.5 248.149 327.2 273.549 327.2C294.949 327.2 313.649 331.2 329.649 339.2C345.849 347 358.249 358 366.849 372.2C375.649 386.4 380.049 402.7 380.049 421.1C380.049 445.5 374.349 467.3 362.949 486.5C351.749 505.5 336.049 520.3 315.849 530.9C295.849 541.5 273.149 546.8 247.749 546.8ZM253.749 489.5C264.949 489.5 274.649 486.6 282.849 480.8C291.249 475 297.649 467.2 302.049 457.4C306.449 447.6 308.649 436.9 308.649 425.3C308.649 412.9 304.949 403 297.549 395.6C290.349 388.2 280.349 384.5 267.549 384.5C256.349 384.5 246.549 387.4 238.149 393.2C229.949 399 223.649 406.8 219.249 416.6C214.849 426.4 212.649 437.1 212.649 448.7C212.649 461.1 216.249 471 223.449 478.4C230.849 485.8 240.949 489.5 253.749 489.5ZM607.346 401C607.346 419.6 602.346 435.9 592.346 449.9C582.546 463.7 568.646 474 550.646 480.8L585.746 542H512.246L482.546 489.2H465.146L454.646 542H383.846L425.846 332H520.046C547.646 332 569.046 338.1 584.246 350.3C599.646 362.3 607.346 379.2 607.346 401ZM535.646 407.9C535.646 393.7 526.846 386.6 509.246 386.6H485.546L475.646 435.8H504.746C514.546 435.8 522.146 433.4 527.546 428.6C532.946 423.6 535.646 416.7 535.646 407.9ZM680.952 386.9H619.452L630.552 332H824.352L813.252 386.9H751.752L720.852 542H650.052L680.952 386.9ZM916.011 546.8C894.611 546.8 875.811 542.9 859.611 535.1C843.611 527.1 831.211 516 822.411 501.8C813.811 487.6 809.511 471.3 809.511 452.9C809.511 428.5 815.111 406.8 826.311 387.8C837.711 368.6 853.411 353.7 873.411 343.1C893.611 332.5 916.411 327.2 941.811 327.2C963.211 327.2 981.911 331.2 997.911 339.2C1014.11 347 1026.51 358 1035.11 372.2C1043.91 386.4 1048.31 402.7 1048.31 421.1C1048.31 445.5 1042.61 467.3 1031.21 486.5C1020.01 505.5 1004.31 520.3 984.111 530.9C964.111 541.5 941.411 546.8 916.011 546.8ZM922.011 489.5C933.211 489.5 942.911 486.6 951.111 480.8C959.511 475 965.911 467.2 970.311 457.4C974.711 447.6 976.911 436.9 976.911 425.3C976.911 412.9 973.211 403 965.811 395.6C958.611 388.2 948.611 384.5 935.811 384.5C924.611 384.5 914.811 387.4 906.411 393.2C898.211 399 891.911 406.8 887.511 416.6C883.111 426.4 880.911 437.1 880.911 448.7C880.911 461.1 884.511 471 891.711 478.4C899.111 485.8 909.211 489.5 922.011 489.5ZM1154.11 385.4L1146.91 421.4H1234.51L1223.71 474.8H1136.41L1122.91 542H1052.11L1094.11 332H1264.81L1254.01 385.4H1154.11ZM1361.91 546.8C1340.51 546.8 1321.71 542.9 1305.51 535.1C1289.51 527.1 1277.11 516 1268.31 501.8C1259.71 487.6 1255.41 471.3 1255.41 452.9C1255.41 428.5 1261.01 406.8 1272.21 387.8C1283.61 368.6 1299.31 353.7 1319.31 343.1C1339.51 332.5 1362.31 327.2 1387.71 327.2C1409.11 327.2 1427.81 331.2 1443.81 339.2C1460.01 347 1472.41 358 1481.01 372.2C1489.81 386.4 1494.21 402.7 1494.21 421.1C1494.21 445.5 1488.51 467.3 1477.11 486.5C1465.91 505.5 1450.21 520.3 1430.01 530.9C1410.01 541.5 1387.31 546.8 1361.91 546.8ZM1367.91 489.5C1379.11 489.5 1388.81 486.6 1397.01 480.8C1405.41 475 1411.81 467.2 1416.21 457.4C1420.61 447.6 1422.81 436.9 1422.81 425.3C1422.81 412.9 1419.11 403 1411.71 395.6C1404.51 388.2 1394.51 384.5 1381.71 384.5C1370.51 384.5 1360.71 387.4 1352.31 393.2C1344.11 399 1337.81 406.8 1333.41 416.6C1329.01 426.4 1326.81 437.1 1326.81 448.7C1326.81 461.1 1330.41 471 1337.61 478.4C1345.01 485.8 1355.11 489.5 1367.91 489.5ZM1540.01 332H1610.81L1579.91 487.1H1674.71L1663.61 542H1498.01L1540.01 332ZM1725.16 332H1795.96L1753.96 542H1683.16L1725.16 332ZM1906.25 546.8C1884.85 546.8 1866.05 542.9 1849.85 535.1C1833.85 527.1 1821.45 516 1812.65 501.8C1804.05 487.6 1799.75 471.3 1799.75 452.9C1799.75 428.5 1805.35 406.8 1816.55 387.8C1827.95 368.6 1843.65 353.7 1863.65 343.1C1883.85 332.5 1906.65 327.2 1932.05 327.2C1953.45 327.2 1972.15 331.2 1988.15 339.2C2004.35 347 2016.75 358 2025.35 372.2C2034.15 386.4 2038.55 402.7 2038.55 421.1C2038.55 445.5 2032.85 467.3 2021.45 486.5C2010.25 505.5 1994.55 520.3 1974.35 530.9C1954.35 541.5 1931.65 546.8 1906.25 546.8ZM1912.25 489.5C1923.45 489.5 1933.15 486.6 1941.35 480.8C1949.75 475 1956.15 467.2 1960.55 457.4C1964.95 447.6 1967.15 436.9 1967.15 425.3C1967.15 412.9 1963.45 403 1956.05 395.6C1948.85 388.2 1938.85 384.5 1926.05 384.5C1914.85 384.5 1905.05 387.4 1896.65 393.2C1888.45 399 1882.15 406.8 1877.75 416.6C1873.35 426.4 1871.15 437.1 1871.15 448.7C1871.15 461.1 1874.75 471 1881.95 478.4C1889.35 485.8 1899.45 489.5 1912.25 489.5Z" fill="white" fill-opacity="0.06"/>
</svg>
