<svg width="1920" height="294" viewBox="0 0 1920 294" fill="none" xmlns="http://www.w3.org/2000/svg">
<path d="M82.1094 293.4C53.576 293.4 28.376 288.2 6.50938 277.8C-15.0906 267.133 -31.8906 252.333 -43.8906 233.4C-55.624 214.467 -61.4906 192.733 -61.4906 168.2C-61.4906 135.667 -54.024 106.733 -39.0906 81.4C-23.8906 56.0667 -2.95729 36.3333 23.7094 22.2C50.6427 7.79999 81.176 0.599992 115.309 0.599992C142.243 0.599992 166.109 5.53333 186.909 15.4C207.709 25 223.176 38.7333 233.309 56.6L165.309 109.8C152.776 87.9333 134.109 77 109.309 77C94.6427 77 81.576 80.6 70.1094 87.8C58.6427 95 49.7094 105.133 43.3094 118.2C36.9094 131 33.7094 145.667 33.7094 162.2C33.7094 178.733 38.9094 192.067 49.3094 202.2C59.976 212.067 73.976 217 91.3094 217C115.043 217 135.843 206.2 153.709 184.6L209.309 237.8C193.043 257.8 174.509 272.067 153.709 280.6C133.176 289.133 109.309 293.4 82.1094 293.4ZM372.306 293.4C343.773 293.4 318.706 288.2 297.106 277.8C275.773 267.133 259.24 252.333 247.506 233.4C236.04 214.467 230.306 192.733 230.306 168.2C230.306 135.667 237.773 106.733 252.706 81.4C267.906 55.8 288.84 35.9333 315.506 21.8C342.44 7.66665 372.84 0.599992 406.706 0.599992C435.24 0.599992 460.173 5.93332 481.506 16.6C503.106 27 519.64 41.6667 531.106 60.6C542.84 79.5333 548.706 101.267 548.706 125.8C548.706 158.333 541.106 187.4 525.906 213C510.973 238.333 490.04 258.067 463.106 272.2C436.44 286.333 406.173 293.4 372.306 293.4ZM380.306 217C395.24 217 408.173 213.133 419.106 205.4C430.306 197.667 438.84 187.267 444.706 174.2C450.573 161.133 453.506 146.867 453.506 131.4C453.506 114.867 448.573 101.667 438.706 91.8C429.106 81.9333 415.773 77 398.706 77C383.773 77 370.706 80.8667 359.506 88.6C348.573 96.3333 340.173 106.733 334.306 119.8C328.44 132.867 325.506 147.133 325.506 162.6C325.506 179.133 330.306 192.333 339.906 202.2C349.773 212.067 363.24 217 380.306 217ZM885.769 6.99998L829.769 287H752.169L671.769 156.6L645.769 287H553.769L609.769 6.99998H687.369L767.769 137.4L793.769 6.99998H885.769ZM977.253 80.2H895.253L910.053 6.99998H1168.45L1153.65 80.2H1071.65L1030.45 287H936.053L977.253 80.2ZM1326.91 238.2H1220.11L1192.11 287H1092.51L1270.91 6.99998H1363.71L1430.11 287H1336.11L1326.91 238.2ZM1313.71 170.2L1300.11 98.6L1258.91 170.2H1313.71ZM1600.47 293.4C1571.94 293.4 1546.74 288.2 1524.87 277.8C1503.27 267.133 1486.47 252.333 1474.47 233.4C1462.74 214.467 1456.87 192.733 1456.87 168.2C1456.87 135.667 1464.34 106.733 1479.27 81.4C1494.47 56.0667 1515.4 36.3333 1542.07 22.2C1569 7.79999 1599.54 0.599992 1633.67 0.599992C1660.6 0.599992 1684.47 5.53333 1705.27 15.4C1726.07 25 1741.54 38.7333 1751.67 56.6L1683.67 109.8C1671.14 87.9333 1652.47 77 1627.67 77C1613 77 1599.94 80.6 1588.47 87.8C1577 95 1568.07 105.133 1561.67 118.2C1555.27 131 1552.07 145.667 1552.07 162.2C1552.07 178.733 1557.27 192.067 1567.67 202.2C1578.34 212.067 1592.34 217 1609.67 217C1633.4 217 1654.2 206.2 1672.07 184.6L1727.67 237.8C1711.4 257.8 1692.87 272.067 1672.07 280.6C1651.54 289.133 1627.67 293.4 1600.47 293.4ZM1838.97 80.2H1756.97L1771.77 6.99998H2030.17L2015.37 80.2H1933.37L1892.17 287H1797.77L1838.97 80.2Z" fill="white" fill-opacity="0.06"/>
</svg>
