<svg width="1920" height="608" viewBox="0 0 1920 608" fill="none" xmlns="http://www.w3.org/2000/svg">
<path d="M370.3 81L261.1 291H185.2L173.2 180.3L115.6 291H39.7L14.5 81H84.4L97.9 200.7L160.3 81H225.4L237.4 202.5L300.7 81H370.3ZM444.822 134.4L440.022 159H528.822L518.622 210H429.522L424.122 237.6H529.422L518.622 291H344.022L386.022 81H556.722L545.922 134.4H444.822ZM736.977 183C745.977 187 752.877 192.5 757.677 199.5C762.677 206.3 765.177 214.5 765.177 224.1C765.177 246.3 755.977 263 737.577 274.2C719.377 285.4 695.877 291 667.077 291H545.877L587.877 81H699.177C723.777 81 742.477 85.4 755.277 94.2C768.077 102.8 774.477 115.1 774.477 131.1C774.477 142.9 771.177 153.3 764.577 162.3C757.977 171.1 748.777 178 736.977 183ZM647.577 130.5L641.277 161.7H677.277C692.877 161.7 700.677 155.6 700.677 143.4C700.677 139.2 699.077 136 695.877 133.8C692.677 131.6 688.077 130.5 682.077 130.5H647.577ZM670.977 241.5C678.177 241.5 683.977 239.9 688.377 236.7C692.777 233.3 694.977 228.5 694.977 222.3C694.977 217.9 693.277 214.5 689.877 212.1C686.677 209.7 682.577 208.5 677.577 208.5H631.977L625.377 241.5H670.977ZM909.85 81H1004.65C1026.65 81 1045.65 84.6 1061.65 91.8C1077.85 99 1090.25 109.3 1098.85 122.7C1107.45 136.1 1111.75 151.9 1111.75 170.1C1111.75 194.3 1106.15 215.6 1094.95 234C1083.75 252.2 1068.15 266.3 1048.15 276.3C1028.35 286.1 1005.75 291 980.35 291H867.85L909.85 81ZM982.75 235.8C1000.95 235.8 1015.05 230.1 1025.05 218.7C1035.25 207.1 1040.35 192.3 1040.35 174.3C1040.35 162.1 1036.55 152.7 1028.95 146.1C1021.55 139.5 1010.75 136.2 996.55 136.2H969.55L949.75 235.8H982.75ZM1216.5 134.4L1211.7 159H1300.5L1290.3 210H1201.2L1195.8 237.6H1301.1L1290.3 291H1115.7L1157.7 81H1328.4L1317.6 134.4H1216.5ZM1400.96 295.8C1382.76 295.8 1365.66 293.9 1349.66 290.1C1333.66 286.1 1320.46 280.9 1310.06 274.5L1337.36 222.3C1359.96 235.3 1383.56 241.8 1408.16 241.8C1417.16 241.8 1424.06 240.7 1428.86 238.5C1433.66 236.3 1436.06 233.3 1436.06 229.5C1436.06 225.9 1433.56 223 1428.56 220.8C1423.76 218.6 1416.06 216.2 1405.46 213.6C1391.46 210 1379.86 206.4 1370.66 202.8C1361.46 199 1353.36 193.3 1346.36 185.7C1339.56 177.9 1336.16 167.7 1336.16 155.1C1336.16 139.3 1340.36 125.5 1348.76 113.7C1357.36 101.7 1369.66 92.5 1385.66 86.1C1401.66 79.5 1420.56 76.2 1442.36 76.2C1457.96 76.2 1472.46 77.8 1485.86 81C1499.46 84 1511.16 88.4 1520.96 94.2L1495.46 145.8C1487.26 140.6 1478.16 136.7 1468.16 134.1C1458.36 131.5 1448.26 130.2 1437.86 130.2C1428.06 130.2 1420.46 131.6 1415.06 134.4C1409.66 137.2 1406.96 140.5 1406.96 144.3C1406.96 148.1 1409.36 151.1 1414.16 153.3C1419.16 155.5 1427.26 157.9 1438.46 160.5C1452.06 163.7 1463.46 167.1 1472.66 170.7C1482.06 174.3 1490.16 179.9 1496.96 187.5C1503.76 195.1 1507.16 205.1 1507.16 217.5C1507.16 233.1 1502.86 246.8 1494.26 258.6C1485.66 270.4 1473.36 279.6 1457.36 286.2C1441.36 292.6 1422.56 295.8 1400.96 295.8ZM1556.73 81H1627.53L1585.53 291H1514.73L1556.73 81ZM1780.71 180.3H1842.21L1824.21 270.9C1813.01 278.9 1800.11 285.1 1785.51 289.5C1771.11 293.7 1755.61 295.8 1739.01 295.8C1717.61 295.8 1698.71 291.9 1682.31 284.1C1666.11 276.1 1653.51 265 1644.51 250.8C1635.71 236.6 1631.31 220.3 1631.31 201.9C1631.31 177.5 1637.01 155.8 1648.41 136.8C1659.81 117.8 1675.71 103 1696.11 92.4C1716.51 81.6 1739.91 76.2 1766.31 76.2C1809.91 76.2 1841.71 89.9 1861.71 117.3L1811.01 156.6C1804.41 148.2 1797.31 142.3 1789.71 138.9C1782.11 135.3 1773.21 133.5 1763.01 133.5C1750.81 133.5 1740.11 136.2 1730.91 141.6C1721.91 147 1714.91 154.6 1709.91 164.4C1705.11 174 1702.71 185 1702.71 197.4C1702.71 209.8 1706.81 219.8 1715.01 227.4C1723.21 234.8 1734.51 238.5 1748.91 238.5C1756.11 238.5 1763.01 237.5 1769.61 235.5L1780.71 180.3ZM2099.17 81L2057.17 291H1998.97L1938.67 193.2L1919.17 291H1850.17L1892.17 81H1950.37L2010.67 178.8L2030.17 81H2099.17Z" fill="white" fill-opacity="0.06"/>
<path d="M-293.4 323H-198.6C-176.6 323 -157.6 326.6 -141.6 333.8C-125.4 341 -113 351.3 -104.4 364.7C-95.8 378.1 -91.5 393.9 -91.5 412.1C-91.5 436.3 -97.1 457.6 -108.3 476C-119.5 494.2 -135.1 508.3 -155.1 518.3C-174.9 528.1 -197.5 533 -222.9 533H-335.4L-293.4 323ZM-220.5 477.8C-202.3 477.8 -188.2 472.1 -178.2 460.7C-168 449.1 -162.9 434.3 -162.9 416.3C-162.9 404.1 -166.7 394.7 -174.3 388.1C-181.7 381.5 -192.5 378.2 -206.7 378.2H-233.7L-253.5 477.8H-220.5ZM13.2516 376.4L8.45157 401H97.2516L87.0516 452H-2.04844L-7.44843 479.6H97.8516L87.0516 533H-87.5484L-45.5484 323H125.152L114.352 376.4H13.2516ZM197.707 537.8C179.507 537.8 162.407 535.9 146.407 532.1C130.407 528.1 117.207 522.9 106.807 516.5L134.107 464.3C156.707 477.3 180.307 483.8 204.907 483.8C213.907 483.8 220.807 482.7 225.607 480.5C230.407 478.3 232.807 475.3 232.807 471.5C232.807 467.9 230.307 465 225.307 462.8C220.507 460.6 212.807 458.2 202.207 455.6C188.207 452 176.607 448.4 167.407 444.8C158.207 441 150.107 435.3 143.107 427.7C136.307 419.9 132.907 409.7 132.907 397.1C132.907 381.3 137.107 367.5 145.507 355.7C154.107 343.7 166.407 334.5 182.407 328.1C198.407 321.5 217.307 318.2 239.107 318.2C254.707 318.2 269.207 319.8 282.607 323C296.207 326 307.907 330.4 317.707 336.2L292.207 387.8C284.007 382.6 274.907 378.7 264.907 376.1C255.107 373.5 245.007 372.2 234.607 372.2C224.807 372.2 217.207 373.6 211.807 376.4C206.407 379.2 203.707 382.5 203.707 386.3C203.707 390.1 206.107 393.1 210.907 395.3C215.907 397.5 224.007 399.9 235.207 402.5C248.807 405.7 260.207 409.1 269.407 412.7C278.807 416.3 286.907 421.9 293.707 429.5C300.507 437.1 303.907 447.1 303.907 459.5C303.907 475.1 299.607 488.8 291.007 500.6C282.407 512.4 270.107 521.6 254.107 528.2C238.107 534.6 219.307 537.8 197.707 537.8ZM353.475 323H424.275L382.275 533H311.475L353.475 323ZM577.458 422.3H638.958L620.958 512.9C609.758 520.9 596.858 527.1 582.258 531.5C567.858 535.7 552.358 537.8 535.758 537.8C514.358 537.8 495.458 533.9 479.058 526.1C462.858 518.1 450.258 507 441.258 492.8C432.458 478.6 428.058 462.3 428.058 443.9C428.058 419.5 433.758 397.8 445.158 378.8C456.558 359.8 472.458 345 492.858 334.4C513.258 323.6 536.658 318.2 563.058 318.2C606.658 318.2 638.458 331.9 658.458 359.3L607.758 398.6C601.158 390.2 594.058 384.3 586.458 380.9C578.858 377.3 569.958 375.5 559.758 375.5C547.558 375.5 536.858 378.2 527.658 383.6C518.658 389 511.658 396.6 506.658 406.4C501.858 416 499.458 427 499.458 439.4C499.458 451.8 503.558 461.8 511.758 469.4C519.958 476.8 531.258 480.5 545.658 480.5C552.858 480.5 559.758 479.5 566.358 477.5L577.458 422.3ZM895.924 323L853.924 533H795.724L735.424 435.2L715.924 533H646.924L688.924 323H747.124L807.424 420.8L826.924 323H895.924ZM1083.88 537.8C1065.08 537.8 1048.78 534.7 1034.98 528.5C1021.38 522.1 1010.88 513.1 1003.48 501.5C996.279 489.9 992.679 476.3 992.679 460.7C992.679 454.3 993.479 446.9 995.079 438.5L1018.18 323H1088.98L1066.18 437.3C1064.98 442.9 1064.38 448 1064.38 452.6C1064.38 462 1066.78 469 1071.58 473.6C1076.38 478.2 1083.38 480.5 1092.58 480.5C1102.98 480.5 1111.08 477.2 1116.88 470.6C1122.68 464 1127.18 452.9 1130.38 437.3L1153.18 323H1222.78L1199.08 441.5C1192.68 473.3 1179.88 497.3 1160.68 513.5C1141.48 529.7 1115.88 537.8 1083.88 537.8ZM1255.23 323H1326.03L1284.03 533H1213.23L1255.23 323ZM1337.02 420.8H1427.02L1416.82 471.8H1326.82L1337.02 420.8ZM1540.91 537.8C1522.11 537.8 1505.81 534.7 1492.01 528.5C1478.41 522.1 1467.91 513.1 1460.51 501.5C1453.31 489.9 1449.71 476.3 1449.71 460.7C1449.71 454.3 1450.51 446.9 1452.11 438.5L1475.21 323H1546.01L1523.21 437.3C1522.01 442.9 1521.41 448 1521.41 452.6C1521.41 462 1523.81 469 1528.61 473.6C1533.41 478.2 1540.41 480.5 1549.61 480.5C1560.01 480.5 1568.11 477.2 1573.91 470.6C1579.71 464 1584.21 452.9 1587.41 437.3L1610.21 323H1679.81L1656.11 441.5C1649.71 473.3 1636.91 497.3 1617.71 513.5C1598.51 529.7 1572.91 537.8 1540.91 537.8ZM1823.93 428.6L1880.33 533H1803.83L1777.73 479L1732.13 533H1647.53L1746.53 424.4L1693.43 323H1769.03L1794.83 375.5L1839.83 323H1919.63L1823.93 428.6Z" fill="white" fill-opacity="0.06"/>
</svg>
