<svg width="50" height="50" viewBox="0 0 50 50" fill="none" xmlns="http://www.w3.org/2000/svg">
<path d="M46.6667 11.5625C45.0716 12.2689 43.3594 12.7474 41.5592 12.9622C43.3952 11.862 44.8047 10.1204 45.4688 8.04362C43.7533 9.0625 41.849 9.80143 39.821 10.2018C38.1999 8.47331 35.8887 7.39258 33.3333 7.39258C28.4245 7.39258 24.4434 11.3737 24.4434 16.2826C24.4434 16.9792 24.5247 17.6595 24.6745 18.3073C17.2852 17.9395 10.7357 14.3978 6.34766 9.01693C5.58594 10.332 5.14648 11.8587 5.14648 13.4896C5.14648 16.5723 6.7155 19.2936 9.10156 20.8887C7.64323 20.8431 6.27279 20.4427 5.07487 19.7754C5.07487 19.8145 5.07487 19.8503 5.07487 19.8893C5.07487 24.196 8.13802 27.7897 12.2038 28.6035C11.4616 28.8086 10.6738 28.916 9.86328 28.916C9.29037 28.916 8.73047 28.8607 8.1901 28.7598C9.32292 32.2884 12.6042 34.8633 16.4941 34.9349C13.4538 37.3177 9.61914 38.7402 5.45247 38.7402C4.73633 38.7402 4.02995 38.6979 3.33008 38.6165C7.26562 41.1361 11.9369 42.6074 16.9596 42.6074C33.3138 42.6074 42.2526 29.0625 42.2526 17.3145C42.2526 16.9271 42.2461 16.5462 42.2298 16.1621C43.9681 14.9089 45.4753 13.3431 46.6667 11.5625Z" fill="#D93D3D"/>
</svg>
