<svg width="40" height="40" viewBox="0 0 40 40" fill="none" xmlns="http://www.w3.org/2000/svg">
<path d="M11.6106 0C5.21635 0 0 5.21635 0 11.6106V28.4014C0 34.7837 5.21635 40 11.6106 40H28.4014C34.7837 40 40 34.7837 40 28.3894V11.6106C40 5.21635 34.7837 0 28.3894 0H11.6106ZM11.6106 3.07692H28.3894C33.125 3.07692 36.9231 6.875 36.9231 11.6106V28.3894C36.9231 33.125 33.125 36.9231 28.4014 36.9231H11.6106C6.875 36.9231 3.07692 33.125 3.07692 28.4014V11.6106C3.07692 6.875 6.875 3.07692 11.6106 3.07692ZM32.3077 6.15385C31.4543 6.15385 30.7692 6.83894 30.7692 7.69231C30.7692 8.54567 31.4543 9.23077 32.3077 9.23077C33.1611 9.23077 33.8462 8.54567 33.8462 7.69231C33.8462 6.83894 33.1611 6.15385 32.3077 6.15385ZM20 9.23077C14.0745 9.23077 9.23077 14.0745 9.23077 20C9.23077 25.9255 14.0745 30.7692 20 30.7692C25.9255 30.7692 30.7692 25.9255 30.7692 20C30.7692 14.0745 25.9255 9.23077 20 9.23077ZM20 12.3077C24.2668 12.3077 27.6923 15.7332 27.6923 20C27.6923 24.2668 24.2668 27.6923 20 27.6923C15.7332 27.6923 12.3077 24.2668 12.3077 20C12.3077 15.7332 15.7332 12.3077 20 12.3077Z" fill="#D93D3D"/>
</svg>
